<svg xmlns="http://www.w3.org/2000/svg" width="1800" height="1220" viewBox="0 0 1800 1220">
<defs>
  <linearGradient id="bg" x1="0" y1="0" x2="1" y2="1">
    <stop offset="0" stop-color="#ffffff"/><stop offset="1" stop-color="#fffbeb"/>
  </linearGradient>
  <filter id="shadow" x="-20%" y="-20%" width="140%" height="140%">
    <feDropShadow dx="0" dy="10" stdDeviation="10" flood-color="#0f172a" flood-opacity="0.16"/>
  </filter>
</defs>
<rect width="1800" height="1220" fill="url(#bg)"/>
<rect x="35" y="35" width="1730" height="1150" rx="36" fill="none" stroke="#f59e0b" stroke-width="5" opacity="0.55"/>

<text x="900" y="78" font-family="Arial, sans-serif" font-size="34" font-weight="900" fill="#92400e" text-anchor="middle">SƠ ĐỒ TƯ DUY - CÂU 7</text>
<text x="900" y="120.0" font-family="Arial, sans-serif" font-size="24" font-weight="700" fill="#334155" text-anchor="middle">Câu 7. Chủ trương của Đảng khi mở chiến dịch Điện Biên Phủ</text>
<text x="900" y="150.0" font-family="Arial, sans-serif" font-size="24" font-weight="700" fill="#334155" text-anchor="middle">1954 và ý nghĩa &#x27;lừng lẫy năm châu, chấn động địa cầu&#x27;</text>
<ellipse cx="900" cy="600" rx="285" ry="145" fill="#ffffff" stroke="#f59e0b" stroke-width="6" filter="url(#shadow)"/>
<text x="900" y="538" font-family="Arial, sans-serif" font-size="36" font-weight="900" fill="#92400e" text-anchor="middle">Câu 7</text>
<text x="900" y="572" font-family="Arial, sans-serif" font-size="22" font-weight="700" fill="#334155" text-anchor="middle">Quyết chiến chiến lược, đánh chắc</text>
<text x="900" y="606" font-family="Arial, sans-serif" font-size="22" font-weight="700" fill="#334155" text-anchor="middle">tiến chắc, đập tan Kế hoạch Nava</text>
<path d="M 900 600 C 612.5 600, 612.5 280.0, 325.0 280.0" stroke="#f59e0b" stroke-width="5" fill="none" opacity="0.45"/>
<path d="M 900 600 C 900.0 600, 900.0 225.0, 900.0 225.0" stroke="#f59e0b" stroke-width="5" fill="none" opacity="0.45"/>
<path d="M 900 600 C 1187.5 600, 1187.5 280.0, 1475.0 280.0" stroke="#f59e0b" stroke-width="5" fill="none" opacity="0.45"/>
<path d="M 900 600 C 1187.5 600, 1187.5 900.0, 1475.0 900.0" stroke="#f59e0b" stroke-width="5" fill="none" opacity="0.45"/>
<path d="M 900 600 C 900.0 600, 900.0 985.0, 900.0 985.0" stroke="#f59e0b" stroke-width="5" fill="none" opacity="0.45"/>
<path d="M 900 600 C 612.5 600, 612.5 900.0, 325.0 900.0" stroke="#f59e0b" stroke-width="5" fill="none" opacity="0.45"/>
<rect x="90" y="140" width="470" height="280" rx="26" fill="#fffbeb" stroke="#f59e0b" stroke-width="4" filter="url(#shadow)"/>
<circle cx="124" cy="174" r="20" fill="#f59e0b"/>
<text x="124" y="182" font-family="Arial, sans-serif" font-size="20" font-weight="700" fill="#ffffff" text-anchor="middle">1</text>
<text x="158" y="174.0" font-family="Arial, sans-serif" font-size="25" font-weight="800" fill="#92400e" text-anchor="start">Bối cảnh</text>
<text x="124" y="210" font-family="Arial, sans-serif" font-size="20" font-weight="500" fill="#1e293b">• Kế hoạch Nava</text>
<text x="124" y="237" font-family="Arial, sans-serif" font-size="20" font-weight="500" fill="#1e293b">• Tập đoàn cứ điểm mạnh</text>
<text x="124" y="264" font-family="Arial, sans-serif" font-size="20" font-weight="500" fill="#1e293b">• Tây Bắc chiến lược</text>
<rect x="665" y="85" width="470" height="280" rx="26" fill="#fffbeb" stroke="#f59e0b" stroke-width="4" filter="url(#shadow)"/>
<circle cx="699" cy="119" r="20" fill="#f59e0b"/>
<text x="699" y="127" font-family="Arial, sans-serif" font-size="20" font-weight="700" fill="#ffffff" text-anchor="middle">2</text>
<text x="733" y="119.0" font-family="Arial, sans-serif" font-size="25" font-weight="800" fill="#92400e" text-anchor="start">Chủ trương</text>
<text x="699" y="155" font-family="Arial, sans-serif" font-size="20" font-weight="500" fill="#1e293b">• Quyết chiến chiến lược</text>
<text x="699" y="182" font-family="Arial, sans-serif" font-size="20" font-weight="500" fill="#1e293b">• Tập trung chủ lực</text>
<text x="699" y="209" font-family="Arial, sans-serif" font-size="20" font-weight="500" fill="#1e293b">• Phá kế hoạch địch</text>
<rect x="1240" y="140" width="470" height="280" rx="26" fill="#fffbeb" stroke="#f59e0b" stroke-width="4" filter="url(#shadow)"/>
<circle cx="1274" cy="174" r="20" fill="#f59e0b"/>
<text x="1274" y="182" font-family="Arial, sans-serif" font-size="20" font-weight="700" fill="#ffffff" text-anchor="middle">3</text>
<text x="1308" y="174.0" font-family="Arial, sans-serif" font-size="25" font-weight="800" fill="#92400e" text-anchor="start">Phương châm</text>
<text x="1274" y="210" font-family="Arial, sans-serif" font-size="20" font-weight="500" fill="#1e293b">• Đánh chắc</text>
<text x="1274" y="237" font-family="Arial, sans-serif" font-size="20" font-weight="500" fill="#1e293b">• Tiến chắc</text>
<text x="1274" y="264" font-family="Arial, sans-serif" font-size="20" font-weight="500" fill="#1e293b">• Bảo đảm thắng lợi</text>
<rect x="1240" y="760" width="470" height="280" rx="26" fill="#fffbeb" stroke="#f59e0b" stroke-width="4" filter="url(#shadow)"/>
<circle cx="1274" cy="794" r="20" fill="#f59e0b"/>
<text x="1274" y="802" font-family="Arial, sans-serif" font-size="20" font-weight="700" fill="#ffffff" text-anchor="middle">4</text>
<text x="1308" y="794.0" font-family="Arial, sans-serif" font-size="25" font-weight="800" fill="#92400e" text-anchor="start">Sức mạnh</text>
<text x="1274" y="830" font-family="Arial, sans-serif" font-size="20" font-weight="500" fill="#1e293b">• Hậu phương</text>
<text x="1274" y="857" font-family="Arial, sans-serif" font-size="20" font-weight="500" fill="#1e293b">• Dân công</text>
<text x="1274" y="884" font-family="Arial, sans-serif" font-size="20" font-weight="500" fill="#1e293b">• Pháo binh - công binh</text>
<rect x="665" y="845" width="470" height="280" rx="26" fill="#fffbeb" stroke="#f59e0b" stroke-width="4" filter="url(#shadow)"/>
<circle cx="699" cy="879" r="20" fill="#f59e0b"/>
<text x="699" y="887" font-family="Arial, sans-serif" font-size="20" font-weight="700" fill="#ffffff" text-anchor="middle">5</text>
<text x="733" y="879.0" font-family="Arial, sans-serif" font-size="25" font-weight="800" fill="#92400e" text-anchor="start">Ý nghĩa</text>
<text x="699" y="915" font-family="Arial, sans-serif" font-size="20" font-weight="500" fill="#1e293b">• Đập tan Nava</text>
<text x="699" y="942" font-family="Arial, sans-serif" font-size="20" font-weight="500" fill="#1e293b">• Hiệp định Genève</text>
<text x="699" y="969" font-family="Arial, sans-serif" font-size="20" font-weight="500" fill="#1e293b">• Cổ vũ giải phóng dân tộc</text>
<rect x="90" y="760" width="470" height="280" rx="26" fill="#fffbeb" stroke="#f59e0b" stroke-width="4" filter="url(#shadow)"/>
<circle cx="124" cy="794" r="20" fill="#f59e0b"/>
<text x="124" y="802" font-family="Arial, sans-serif" font-size="20" font-weight="700" fill="#ffffff" text-anchor="middle">6</text>
<text x="158" y="794.0" font-family="Arial, sans-serif" font-size="25" font-weight="800" fill="#92400e" text-anchor="start">Mẹo nhớ</text>
<text x="124" y="830" font-family="Arial, sans-serif" font-size="20" font-weight="500" fill="#1e293b">• NA-CHẮC-DÂN-THẮNG</text>
<text x="124" y="857" font-family="Arial, sans-serif" font-size="20" font-weight="500" fill="#1e293b">• Nava - Chắc - Dân - Thắng</text>
<rect x="130" y="1140" width="1540" height="50" rx="25" fill="#ffffff" stroke="#f59e0b" stroke-width="3" opacity="0.9"/>
<text x="900" y="1173.0" font-family="Arial, sans-serif" font-size="21" font-weight="700" fill="#92400e" text-anchor="middle">Mẹo nhớ: NA-CHẮC-DÂN-THẮNG = Nava thất bại, đánh chắc tiến chắc, toàn dân hậu cần, thắng lợi toàn cầu.</text>
</svg>